<?xml version="1.0" encoding="UTF-8" standalone="no"?>
<!-- Generator: Adobe Illustrator 16.0.0, SVG Export Plug-In . SVG Version: 6.00 Build 0)  -->

<svg
   xmlns:dc="http://purl.org/dc/elements/1.1/"
   xmlns:cc="http://creativecommons.org/ns#"
   xmlns:rdf="http://www.w3.org/1999/02/22-rdf-syntax-ns#"
   xmlns:svg="http://www.w3.org/2000/svg"
   xmlns="http://www.w3.org/2000/svg"
   xmlns:sodipodi="http://sodipodi.sourceforge.net/DTD/sodipodi-0.dtd"
   xmlns:inkscape="http://www.inkscape.org/namespaces/inkscape"
   version="1.1"
   id="Layer_1"
   x="0px"
   y="0px"
   width="612px"
   height="792px"
   viewBox="0 0 612 792"
   enable-background="new 0 0 612 792"
   xml:space="preserve"
   inkscape:version="0.91 r13725"
   sodipodi:docname="moca.svg"><metadata
     id="metadata3629"><rdf:RDF><cc:Work
         rdf:about=""><dc:format>image/svg+xml</dc:format><dc:type
           rdf:resource="http://purl.org/dc/dcmitype/StillImage" /></cc:Work></rdf:RDF></metadata><defs
     id="defs3627" /><sodipodi:namedview
     pagecolor="#ffffff"
     bordercolor="#666666"
     borderopacity="1"
     objecttolerance="10"
     gridtolerance="10"
     guidetolerance="10"
     inkscape:pageopacity="0"
     inkscape:pageshadow="2"
     inkscape:window-width="1366"
     inkscape:window-height="768"
     id="namedview3625"
     showgrid="false"
     inkscape:zoom="0.95887965"
     inkscape:cx="229.53714"
     inkscape:cy="323.32328"
     inkscape:window-x="0"
     inkscape:window-y="0"
     inkscape:window-maximized="1"
     inkscape:current-layer="Layer_1" /><g
     id="g3337"><g
       id="g3339"><path
         d="M268,367.5c-0.902-11.693,9.589-20.282,19.421-24.375c6.861-2.856,21.53-5.82,22.079,5.375c0.157,3.209,5.158,3.224,5,0    c-0.701-14.287-16.227-14.426-26.67-10.854c-12.502,4.276-25.947,15.373-24.83,29.854C263.247,370.693,268.248,370.717,268,367.5    L268,367.5z"
         id="path3341" /></g></g><g
     id="g3343"><g
       id="g3345"><path
         d="M279.738,342.841c-6.059,4.032-5.379,14.771-4.373,20.955c1.004,6.166,4.557,14.937,12.571,13.028    c7.026-1.673,10.01-10.214,11.574-16.389c1.52-6.002,3.006-15.223-0.852-20.697c-1.841-2.613-6.18-0.119-4.317,2.523    c2.446,3.472,1.678,9.13,1.102,13.055c-0.766,5.213-2.347,11.172-6.045,15.104c-4.566,4.854-7.965-2.027-8.845-5.899    c-0.875-3.851-2.339-14.669,1.708-17.363C284.932,345.382,282.431,341.049,279.738,342.841L279.738,342.841z"
         id="path3347" /></g></g><g
     id="g3349"><g
       id="g3351"><path
         d="M281.589,343.835c-1.677,5.7,0.435,13.219,3.915,17.88c4.469,5.985,9.261,1.312,10.906-4.051    c-1.607-0.443-3.214-0.886-4.821-1.329c-0.736,3.609-3.004,6.258-4.748,9.403c1.439,0.841,2.878,1.682,4.317,2.523    c0.5-1,1-2,1.5-3c-1.523-0.642-3.046-1.284-4.569-1.926c-0.634,1.511-1.365,2.986-2,4.5c1.607,0.443,3.214,0.886,4.821,1.329    c0.418-1.15,0.677-2.319,1-3.5c0.746-2.721-3.18-4.429-4.569-1.926c-1.061,1.912-2.267,3.696-3.5,5.5    c1.523,0.642,3.046,1.284,4.569,1.926c0.37-1.497,0.63-3.003,1-4.5c0.696-2.82-3.009-4.267-4.569-1.926c-1,1.5-2,3-3,4.5    c1.523,0.642,3.046,1.284,4.569,1.926c0.421-2.732,0.578-5.397,0.589-8.165c0.006-1.363-1.142-2.5-2.5-2.5c-0.167,0-0.333,0-0.5,0    c-1.141,0-2.077,0.769-2.411,1.835c-0.25,0.468-0.499,0.935-0.748,1.403c1.553,0.42,3.106,0.841,4.659,1.262    c-0.102-2.341-0.398-4.659-0.5-7c-0.125-2.885-3.978-3.32-4.911-0.665c-0.563,1.604-0.908,2.985-1.089,4.665c1.667,0,3.333,0,5,0    c-0.071-4.192-0.534-8.337-1-12.5c-0.354-3.163-4.788-3.271-5,0c-0.109,1.675-0.391,3.325-0.5,5c0.833-0.833,1.667-1.667,2.5-2.5    c-0.167,0-0.333,0-0.5,0c0.833,0.833,1.667,1.667,2.5,2.5c-0.09-2.212-0.271-4.294,0-6.5c-1.667,0-3.333,0-5,0c0,1,0,2,0,3    c0,3.224,5,3.224,5,0c0-1,0-2,0-3c0-3.312-4.619-3.107-5,0c-0.271,2.206-0.09,4.288,0,6.5c0.056,1.361,1.095,2.5,2.5,2.5    c0.167,0,0.333,0,0.5,0c1.43,0,2.412-1.141,2.5-2.5c0.109-1.675,0.391-3.325,0.5-5c-1.667,0-3.333,0-5,0    c0.466,4.163,0.929,8.308,1,12.5c0.056,3.292,4.661,3.137,5,0c0.167-1.15,0.471-2.262,0.911-3.335    c-1.637-0.222-3.274-0.443-4.911-0.665c0.102,2.341,0.398,4.659,0.5,7c0.111,2.566,3.254,3.305,4.659,1.262    c0.661-0.961,0.909-1.499,1.252-2.597c-0.804,0.612-1.607,1.224-2.411,1.835c0.167,0,0.333,0,0.5,0    c-0.833-0.833-1.667-1.667-2.5-2.5c-0.01,2.314-0.056,4.533-0.411,6.835c-0.425,2.756,2.924,4.395,4.569,1.926c1-1.5,2-3,3-4.5    c-1.523-0.642-3.046-1.284-4.569-1.926c-0.37,1.497-0.63,3.003-1,4.5c-0.701,2.839,2.99,4.235,4.569,1.926    c1.233-1.803,2.439-3.588,3.5-5.5c-1.523-0.642-3.046-1.284-4.569-1.926c-0.324,1.181-0.582,2.35-1,3.5    c-1.123,3.087,3.61,4.215,4.821,1.329c0.634-1.511,1.365-2.986,2-4.5c1.1-2.621-3.314-4.437-4.569-1.926c-0.5,1-1,2-1.5,3    c-1.431,2.862,2.743,5.363,4.317,2.523c1.965-3.542,4.425-6.542,5.252-10.597c0.641-3.142-3.87-4.432-4.821-1.329    c-0.355,1.158-0.759,3.746-1.696,2.875c-1.068-0.993-1.732-2.637-2.263-3.954c-1.226-3.041-2.168-6.867-1.219-10.092    C287.323,342.064,282.498,340.749,281.589,343.835L281.589,343.835z"
         id="path3353" /></g></g><g
     id="g3355"><g
       id="g3357"><path
         d="M258.411,345.665c2.95-13.324,11.047-27.375,22.924-34.522c6.412-3.858,24.408-12.826,28.754-1.978    c1.185,2.955,6.022,1.667,4.822-1.329c-5.479-13.673-22.448-7.961-32.335-3.07c-15.093,7.467-25.393,23.337-28.987,39.57    C252.894,347.477,257.714,348.812,258.411,345.665L258.411,345.665z"
         id="path3359" /></g></g><g
     id="g3361"><g
       id="g3363"><path
         d="M183.911,352.835c-0.581-2.94,15.379-1.833,17.184-1.56c9.315,1.408,13.938,11.958,16.495,19.889    c0.985,3.056,5.813,1.749,4.821-1.329c-3.714-11.519-10.143-22.318-23.037-23.784c-5.635-0.641-22.216-1.656-20.285,8.113    C179.714,357.326,184.533,355.984,183.911,352.835L183.911,352.835z"
         id="path3365" /></g></g><g
     id="g3367"><g
       id="g3369"><path
         d="M190.841,347.738c-4.376,9.013-2.545,23.65,5.147,30.28c3.809,3.283,8.921,3.437,13.011,0.659    c4.998-3.395,6.822-9.977,7-15.678c0.101-3.226-4.899-3.216-5,0c-0.13,4.176-1.252,8.107-4.266,11.116    c-3.847,3.839-8.222-0.032-10.575-3.377c-3.226-4.587-3.4-15.535-1-20.477C196.561,347.375,192.25,344.838,190.841,347.738    L190.841,347.738z"
         id="path3371" /></g></g><g
     id="g3373"><g
       id="g3375"><path
         d="M209.089,364.835c-0.646,1.977-1.632,3.667-2.748,5.403c1.523,0.642,3.046,1.284,4.569,1.926    c0.418-1.15,0.677-2.319,1-3.5c0.617-2.25-2.562-4.487-4.178-2.432c-1.396,1.775-2.908,3.4-4.5,5    c1.393,0.811,2.786,1.622,4.178,2.432c0.476-1.865,0.962-3.628,1.748-5.403c-1.523-0.642-3.046-1.284-4.569-1.926    c-0.585,2.579-1.574,4.454-3.357,6.397c1.393,0.811,2.786,1.622,4.178,2.432c0.842-2.125,1.158-4.375,2-6.5    c0.955-2.411-2.528-4.113-4.178-2.432c-1.253,1.276-2.33,2.571-3.391,4.006c1.523,0.642,3.046,1.284,4.569,1.926    c0.578-2.921,1.543-5.686,2.5-8.5c-1.607-0.443-3.214-0.886-4.821-1.329c-0.834,2.472-1.628,4.872-3.357,6.897    c1.422,0.589,2.845,1.178,4.268,1.768c0.076-2.98,0.437-5.893,0.911-8.835c0.505-3.135-3.804-4.45-4.821-1.329    c-0.551,1.689-1.294,2.947-2.248,4.403c1.553,0.42,3.106,0.841,4.659,1.262c0.078-2.747,0.593-5.226,1.411-7.835    c-1.607-0.443-3.214-0.886-4.821-1.329c-0.442,1.551-1.034,2.958-1.748,4.403c1.553,0.42,3.106,0.841,4.659,1.262    c-0.342-3.732,0.054-7.192,0.911-10.835c0.752-3.198-3.673-4.284-4.821-1.329c-1.032,2.655-1.969,5.345-3,8    c1.607,0.443,3.214,0.886,4.821,1.329c0.495-2.549,0.583-5.072,0.589-7.665c0.006-2.319-3.631-3.641-4.659-1.262    c-0.7,1.621-1.534,3.023-2.5,4.5c1.553,0.42,3.106,0.841,4.659,1.262c-0.109-1.675-0.391-3.325-0.5-5c-0.214-3.3-4.583-3.128-5,0    c-0.408,3.061-0.408,5.939,0,9c0.346,2.598,4.167,3.637,4.911,0.665c0.167-0.667,0.333-1.333,0.5-2    c-1.637-0.222-3.274-0.443-4.911-0.665c-0.456,4.308,0.384,7.959,3.232,11.268c1.465,1.703,4.268,0.294,4.268-1.768    c0-0.167,0-0.333,0-0.5c-1.553,0.42-3.106,0.841-4.659,1.262c1.232,1.734,2.615,3.345,3.925,5.018    c0.811-1.393,1.622-2.786,2.432-4.178c-0.011-0.004-0.023-0.008-0.034-0.012c-2.56-0.877-3.927,2.426-2.432,4.178    c1.147,1.346,2.396,2.451,4.268,2.232c3.163-0.37,3.199-5.374,0-5c-0.488,0.057,0.694,0.905-0.732-0.768    c-0.811,1.393-1.622,2.786-2.432,4.178c0.011,0.004,0.023,0.008,0.034,0.012c2.631,0.902,3.815-2.414,2.432-4.178    c-1.047-1.337-2.158-2.62-3.143-4.006c-1.379-1.941-4.659-1.382-4.659,1.262c0,0.167,0,0.333,0,0.5    c1.422-0.589,2.845-1.179,4.268-1.768c-1.974-2.293-2.07-4.871-1.768-7.732c0.301-2.844-4.24-3.349-4.911-0.665    c-0.167,0.667-0.333,1.333-0.5,2c1.637,0.222,3.274,0.443,4.911,0.665c-0.408-3.061-0.408-5.939,0-9c-1.667,0-3.333,0-5,0    c0.109,1.675,0.391,3.325,0.5,5c0.162,2.497,3.265,3.393,4.659,1.262c0.966-1.477,1.8-2.879,2.5-4.5    c-1.553-0.42-3.106-0.841-4.659-1.262c-0.006,2.136-0.001,4.228-0.411,6.335c-0.622,3.202,3.662,4.314,4.821,1.329    c1.032-2.655,1.969-5.345,3-8c-1.607-0.443-3.214-0.886-4.821-1.329c-0.958,4.072-1.473,7.981-1.089,12.165    c0.206,2.251,3.456,3.696,4.659,1.262c0.91-1.841,1.689-3.621,2.252-5.597c0.887-3.115-3.862-4.392-4.821-1.329    c-0.95,3.032-1.499,5.99-1.589,9.165c-0.074,2.604,3.354,3.253,4.659,1.262c1.181-1.803,2.085-3.552,2.752-5.597    c-1.607-0.443-3.214-0.886-4.821-1.329c-0.544,3.376-1.001,6.741-1.089,10.165c-0.053,2.08,2.833,3.448,4.268,1.768    c2.321-2.717,3.509-5.742,4.643-9.103c1.035-3.065-3.79-4.363-4.821-1.329c-0.958,2.814-1.922,5.579-2.5,8.5    c-0.57,2.88,2.891,4.196,4.569,1.926c0.778-1.08,1.648-2.078,2.609-2.994c-1.393-0.811-2.786-1.622-4.178-2.432    c-0.842,2.125-1.158,4.375-2,6.5c-0.937,2.364,2.559,4.197,4.178,2.432c2.334-2.543,3.876-5.225,4.643-8.603    c0.599-2.636-3.375-4.625-4.569-1.926c-0.957,2.161-1.667,4.303-2.252,6.597c-0.614,2.404,2.386,4.232,4.178,2.432    c1.593-1.599,3.104-3.225,4.5-5c-1.393-0.811-2.786-1.622-4.178-2.432c-0.324,1.181-0.582,2.35-1,3.5    c-1.008,2.773,3.1,4.212,4.569,1.926c1.349-2.098,2.477-4.225,3.252-6.597C214.916,363.091,210.086,361.785,209.089,364.835    L209.089,364.835z"
         id="path3377" /></g></g><g
     id="g3379"><g
       id="g3381"><path
         d="M229.5,348.5c0.239-23.502-24.617-61.06-51.262-46.159c-2.814,1.574-0.293,5.893,2.523,4.317    c22.935-12.827,43.937,22.347,43.738,41.841C224.467,351.726,229.467,351.723,229.5,348.5L229.5,348.5z"
         id="path3383" /></g></g><g
     id="g3385"><g
       id="g3387"><path
         d="m 268.665,418.911 c 3.075,-0.938 1.763,-5.766 -1.329,-4.822 -7.231,2.207 -14.26429,4.01757 -21.73629,3.70057 -7.119,-0.301 -17.57172,-1.3015 -24.51472,-3.7285 -3.053,-1.067 -2.32506,3.94935 0.69694,5.00635 13.02325,1.17634 36.27543,2.9258 46.88307,-0.15642 z"
         id="path3389"
         inkscape:connector-curvature="0"
         sodipodi:nodetypes="cccccc" /></g></g><path
     style="fill:#1a1a1a"
     d="M 168.81143,242.18254 C 206.9304,203.67674 247.79729,201.95706 264,221.22905 l 5.73571,0.47547 c 5.32229,-9.31525 22.26812,-7.88152 32.80264,-10.6815 16.14623,7.90415 32.84309,15.56358 36.83056,28.87163 l 40.51469,147.94485 17.37415,62.31974 1.92577,27.14841 -3.60662,38.64404 -3.73855,58.08055 9.35105,35.08023 -22.19742,-31.17577 -9.10333,33.52873 -28.10145,-55.52083 16.45274,-4.34131 -3.39914,-6.44089 -12.74691,-17.07433 -8.4377,-39.97433 -14.57209,-16.71934 -32.16048,-9.02716 -9.46567,-8.132 -0.91301,-15.95217 11.5554,-1.95002 28.39186,-13.41447 11.55841,-37.00102 -1.52584,-62.11014 -28.14219,-46.49079 -28.60836,-22.47561 -39.17457,17.66563 c -23.12847,29.05382 -44.90053,56.05708 -56.96036,92.14237 l 10.49923,60.31694 57.46559,16.74661 6.85716,2.02195 -1.90642,15.31887 -35.57345,6.26814 -12.10955,3.26029 -9.55391,10.01399 -10.94699,39.28781 -20.023,22.14319 18.30005,1.70521 c -9.66868,12.76296 -16.25595,27.58018 -33.66585,35.18232 l -4.76972,-26.80297 -23.4828,13.64009 15.88815,-20.12637 5.16074,-15.412 -8.31839,-20.90565 0.40937,-50.10409 4.04837,-49.03322 12.64651,-103.33408 c 0.37742,-22.81074 13.21707,-42.50591 24.24705,-62.65351 z"
     id="rect3631"
     inkscape:connector-curvature="0"
     sodipodi:nodetypes="cccccccccccccccccccccccccccccccccccccccccccccccccc" /><g
     id="g3391"><g
       id="g3393"><path
         d="M166.589,345.165c4.669,17.072,7.489,34.539,9.102,52.152c0.979,10.693,0.739,22.588,9.699,30.086    c5.177,4.332,12.314,6.01,18.687,7.674c8.207,2.143,16.58,3.534,24.908,5.09c15.678,2.927,30.596,5.934,46.181,0.745    c3.043-1.014,1.739-5.844-1.329-4.822c-14.703,4.896-28.735,2.084-43.522-0.744c-7.146-1.367-14.293-2.616-21.39-4.235    c-7.068-1.612-15.229-3.252-20.918-8.013c-8.611-7.206-6.981-23.214-8.048-33.17c-1.667-15.552-4.419-31-8.546-46.091    C170.561,340.729,165.737,342.049,166.589,345.165L166.589,345.165z"
         id="path3395" /></g></g><g
     id="g3397"><g
       id="g3399"><path
         d="M274.165,441.411c10.617-2.66,21.179-5.638,31.113-10.308c10.436-4.904,17.327-12.892,21.033-23.772    c3.751-11.011,3.479-23.184,3.6-34.661c0.165-15.773-1.312-31.415-1.41-47.17c-0.021-3.223-5.021-3.225-5,0    c0.155,24.794,4.49,50.674-0.602,75.262c-2.37,11.439-8.529,20.015-18.888,25.404c-9.697,5.045-20.628,7.781-31.175,10.423    C269.709,437.373,271.036,442.194,274.165,441.411L274.165,441.411z"
         id="path3401" /></g></g><g
     id="g3403"><g
       id="g3405"><path
         d="M242.732,442.268c2.218,2.485,5.92,12.066,0.603,13.821c-3.047,1.006-1.742,5.836,1.329,4.822    c9.399-3.104,6.915-16.226,1.603-22.179C244.117,436.321,240.593,439.87,242.732,442.268L242.732,442.268z"
         id="path3407" /></g></g><g
     id="g3409"><g
       id="g3411"><path
         d="M273.589,438.835c-2.249,10.269,2.012,22.743,12.746,26.076c3.088,0.958,4.398-3.869,1.329-4.822    c-8.006-2.484-10.901-12.403-9.254-19.924C279.099,437.021,274.279,435.687,273.589,438.835L273.589,438.835z"
         id="path3413" /></g></g><g
     id="g3415"><g
       id="g3417"><path
         d="M248.165,375.411c23.506-7.354,48.25-10.308,72.835-9.911c5.786,0.094,18.735,1.181,19.306,8.91    c0.776,10.502-13.075,13.984-20.775,15.414c-13.032,2.419-26.739,3.553-39.978,3.028c-12.148-0.481-29.789-3.38-29.552-18.852    c0.049-3.226-4.951-3.221-5,0c-0.259,16.985,16.221,22.245,30.377,23.578c16.013,1.509,33.512-0.254,49.209-3.685    c9.322-2.038,18.174-6.815,20.455-16.755c1.946-8.482-5.737-13.211-12.761-15.104c-11.606-3.127-24.771-1.659-36.558-0.72    c-14.34,1.143-28.606,3.585-42.484,7.37c-2.148,0.586-4.278,1.239-6.403,1.904C243.769,371.549,245.079,376.376,248.165,375.411    L248.165,375.411z"
         id="path3419" /></g></g><g
     id="g3421"><g
       id="g3423"><path
         d="M148.665,377.911c16.221-3.935,33.074-4.918,49.717-4.448c6.501,0.184,18.036-0.545,20.31,7.456    c1.151,4.049-3.954,7.554-6.674,9.358c-4.025,2.67-9.008,3.608-13.721,4.13c-9.945,1.102-53.65,1.127-44.638-18.146    c1.357-2.902-2.953-5.442-4.317-2.523c-12.771,27.311,40.03,27.366,54.323,24.923c7.94-1.357,17.71-6.331,19.88-14.734    c1.821-7.052-4.859-12.125-10.661-14.063c-4.498-1.502-9.827-1.233-14.502-1.402c-5.695-0.205-11.397-0.123-17.09,0.106    c-11.406,0.458-22.856,1.827-33.957,4.52C144.203,373.849,145.532,378.671,148.665,377.911L148.665,377.911z"
         id="path3425" /></g></g><g
     id="g3427"><g
       id="g3429"><path
         d="M220.659,376.762c0.658-1.174,10.21-0.94,12.281-0.991c4.32-0.105,8.76,0.217,13.061-0.271c3.166-0.359,3.201-5.363,0-5    c-5.362,0.608-10.91,0.174-16.301,0.368c-3.552,0.128-11.247-0.398-13.358,3.37C214.764,377.054,219.083,379.574,220.659,376.762    L220.659,376.762z"
         id="path3431" /></g></g><g
     id="g3433"><g
       id="g3435"><path
         d="M248.835,259.589c-21.789,8.905-35.245,26.746-47.643,45.935c-12.323,19.073-27.9,40.186-27.693,63.976    c0.028,3.223,5.028,3.226,5,0c-0.194-22.35,14.641-42.208,26.176-60.156c11.811-18.377,24.553-36.376,45.489-44.933    C253.107,263.208,251.821,258.369,248.835,259.589L248.835,259.589z"
         id="path3437" /></g></g><g
     id="g3439"><g
       id="g3441"><path
         d="M264.768,216.732c-3.031-3.643-7.497-5.129-11.988-6.123c-5.807-1.285-11.985-2.008-17.9-2.526    c-13.477-1.181-26.426,3.031-38.641,8.258c-21.758,9.31-35.752,30.126-44.468,51.215c-10.942,26.477-14.801,54.81-17.489,83.123    c-1.559,16.418-2.611,32.923-4.816,49.27c-2.05,15.203-3.389,30.226-4.047,45.561c-0.598,13.913,0.103,27.824-0.645,41.727    c-0.576,10.711-1.886,23.207,3.4,33.022c1.529,2.84,5.846,0.314,4.317-2.523c-5.377-9.984-3.05-23.701-2.505-34.548    c0.722-14.401,0.045-28.856,0.675-43.283c0.693-15.854,2.856-31.33,4.693-47.066c1.856-15.894,2.916-31.893,4.474-47.82    c2.793-28.561,7.639-57.274,20.001-83.426c5.17-10.938,12.058-20.953,21-29.141c10.179-9.32,23.301-15.036,36.634-18.123    c8.372-1.938,16.571-1.482,24.992-0.255c6.238,0.909,14.416,0.951,18.778,6.194C263.297,222.749,266.814,219.191,264.768,216.732    L264.768,216.732z"
         id="path3443" /></g></g><g
     id="g3445"><g
       id="g3447"><path
         d="M272.268,223.268c10.987-9.459,23.12-11.938,36.917-7.508c11.098,3.562,18.763,11.744,24.32,21.699    c5.411,9.691,8.506,20.592,11.276,31.274c3.27,12.609,6.262,25.257,9.917,37.768c8.915,30.51,19.234,60.581,27.627,91.251    c4.089,14.943,5.983,30.343,9.624,45.396c1.793,7.415,4.043,14.629,4.576,22.28c0.55,7.876-0.447,15.88-1.262,23.702    c-2.189,21.016-5.715,41.871-6.766,62.998c1.667,0,3.333,0,5,0c0-0.6,0-1.199,0-1.799c0-3.225-5-3.225-5,0c0,0.6,0,1.199,0,1.799    c0,3.241,4.841,3.202,5,0c0.796-15.998,2.953-31.862,4.965-47.74c1.845-14.557,4.747-30.143,2.469-44.792    c-1.123-7.226-3.338-14.271-5.024-21.382c-1.857-7.833-3.264-15.723-4.616-23.653c-2.612-15.309-7.603-30.183-11.914-45.069    c-8.715-30.089-19.351-59.593-26.802-90.047c-4.861-19.867-9.444-41.653-23.79-57.132c-7.15-7.715-17.55-12.398-27.92-13.63    c-12.335-1.465-22.888,3.09-32.132,11.049C266.285,221.839,269.838,225.36,272.268,223.268L272.268,223.268z"
         id="path3449" /></g></g><g
     id="g3451"><g
       id="g3453"><path
         d="M291.589,273.165c0.782,1.876,1.621,3.391,3.34,4.577c3.504,2.418,5.85,5.333,8.227,8.854    c4.151,6.148,7.192,12.97,10.806,19.429c3.465,6.194,7.01,12.33,9.603,18.957c1.471,3.757,2.175,8.318,4.277,11.78    c1.67,2.751,5.995,0.24,4.316-2.523c-1.845-3.039-2.529-7.253-3.771-10.586c-2.211-5.931-5.248-11.521-8.342-17.024    c-3.666-6.52-6.947-13.254-10.764-19.687c-1.512-2.548-3.177-5.054-5.042-7.359c-0.98-1.212-1.978-2.355-3.067-3.47    c-1.495-1.531-3.858-2.106-4.762-4.276C295.189,268.904,290.349,270.189,291.589,273.165L291.589,273.165z"
         id="path3455" /></g></g><path
     style="fill:#afe9dd"
     d="m 197.10502,470.27037 43.30934,-9.50895 19.77905,8.4985 21.93778,-6.57377 c 13.51238,4.33573 37.32375,5.23846 39.59844,13.32008 14.21999,9.40996 17.24729,31.25624 19.1531,54.34862 l 16.5149,21.95738 -49.13386,7.41321 -7.3458,-16.67854 -1.0889,-31.06118 c 6.01518,5.84641 -2.74154,48.62254 -4.31717,73.44598 l 20.43528,45.75898 -60.55251,-15.95335 -50.74211,4.08695 20.61033,-44.24409 -1.04289,-63.09447 -2.2147,32.03976 -15.37481,22.63516 C 198.21833,552.68053 189.7889,538.714 162.37414,539.66451 l 17.3501,-20.60496 c 1.20703,-17.79191 7.84888,-33.77222 17.38078,-48.78918 z"
     id="rect3640"
     inkscape:connector-curvature="0"
     sodipodi:nodetypes="ccccccccccccccccccccc" /><g
     id="g3457"><g
       id="g3459"><path
         d="M277.589,458.335c-0.463,2.412-5.791,4.302-7.734,5.217c-2.557,1.204-5.912,2.852-8.805,2.979    c-2.532,0.113-16.053-5.957-15.783-6.264c2.123-2.409-1.4-5.959-3.535-3.535c-6.84,7.764,12.078,13.549,16.813,14.502    c4.459,0.898,8.767-1.184,12.787-2.896c3.623-1.543,10.22-4.202,11.079-8.673C283.016,456.515,278.197,455.171,277.589,458.335    L277.589,458.335z"
         id="path3461" /></g></g><g
     id="g3463"><g
       id="g3465"><path
         d="M286.335,464.911c7.885,2.959,16.214,4.134,24.301,6.371c9.976,2.759,17.089,8.71,20.56,18.615    c3.922,11.192,4.096,22.956,6.467,34.447c2.028,9.831,9.231,17.558,16.069,24.423c2.277,2.287,5.813-1.249,3.535-3.535    c-3.707-3.723-7.313-7.49-10.265-11.854c-3.793-5.609-4.854-11.673-5.689-18.257c-1.465-11.536-2.857-23.894-8.736-34.153    c-9.21-16.073-29.58-15.124-44.913-20.879C284.64,458.954,283.346,463.789,286.335,464.911L286.335,464.911z"
         id="path3467" /></g></g><g
     id="g3469"><g
       id="g3471"><path
         d="M238.335,458.089c-16.405,4.677-37.557-0.867-48.682,15.343c-6.506,9.48-6.627,22.285-9.103,33.128    c-2.951,12.928-11.836,23.543-22.313,31.282c-2.563,1.893-0.074,6.235,2.523,4.316c8.875-6.556,16.254-14.577,21.234-24.479    c5.291-10.518,5.01-22.926,8.438-34.041c6.936-22.488,31.517-15.678,49.23-20.728C242.76,462.028,241.443,457.203,238.335,458.089    L238.335,458.089z"
         id="path3473" /></g></g><g
     id="g3475"><g
       id="g3477"><path
         d="M309.335,562.411c7.649,2.201,15.978-1.703,23.33-3.5c4.406-1.078,9.044-1.394,13.501-2.25    c4.422-0.851,10.009-1.758,13.405-4.994c3.506-3.341-0.311-7.127-3.31-8.825c-2.81-1.592-5.328,2.729-2.523,4.316    c0.693,0.393,1.354,0.768,1.957,1.292c0.415,0.361,0.604-0.569,0.014-0.007c-1.014,0.965-2.854,1.369-4.139,1.776    c-3.877,1.229-7.951,1.889-11.957,2.542c-2.748,0.448-5.561,0.708-8.278,1.327c-6.414,1.463-14.042,5.408-20.67,3.5    C307.56,556.695,306.243,561.521,309.335,562.411L309.335,562.411z"
         id="path3479" /></g></g><g
     id="g3481"><g
       id="g3483"><path
         d="M159.165,543.411c7.447-1.402,15.628,1.088,22.608,3.5c6.945,2.398,14.808,5.932,19.459,11.856    c1.99,2.535,5.502-1.03,3.535-3.535c-5.226-6.658-13.935-10.33-21.666-13.144c-7.817-2.844-16.942-5.066-25.267-3.5    C154.669,539.186,156.014,544.004,159.165,543.411L159.165,543.411z"
         id="path3485" /></g></g><path
     style="fill:#1a1a1a"
     d="m 179.89745,579.25171 22.422,-21.37912 5.37573,7.1815 14.90778,-21.48892 2.5939,29.11275 c -4.61741,10.4491 -4.88597,20.89821 -15.70064,31.34731 l -5.61244,-23.73063 -22.42201,31.80795 z"
     id="rect3634"
     inkscape:connector-curvature="0"
     sodipodi:nodetypes="ccccccccc" /><g
     id="g3487"><g
       id="g3489"><path
         d="M221.589,512.835c-5.421,18.66,2.459,37.216,1.238,56.078c-1.184,18.29-12.786,33.13-22.486,47.825    c-1.782,2.699,2.55,5.201,4.317,2.523c9.322-14.123,19.458-27.73,22.487-44.782c3.589-20.205-6.528-40.373-0.735-60.314    C227.313,511.062,222.487,509.745,221.589,512.835L221.589,512.835z"
         id="path3491" /></g></g><path
     style="fill:#1a1a1a"
     d="m 298.26476,544.83653 13.03604,15.64326 7.22507,-0.21716 7.85779,23.15912 -7.78267,27.11646 -22.422,-33.37228 z"
     id="rect3637"
     inkscape:connector-curvature="0"
     sodipodi:nodetypes="ccccccc" /><g
     id="g3493"><g
       id="g3495"><path
         d="M299,511c0.432,5.589,1.016,11.117,0.588,16.726c-0.45,5.896-2.572,11.76-4.202,17.404    c-2.819,9.769-2.769,19.152-1.351,29.174c1.57,11.097,4.393,21.896,8.256,32.412c3.354,9.128,7.25,18.835,13.94,26.052    c2.196,2.369,5.724-1.175,3.535-3.535c-6.854-7.395-10.542-17.834-13.857-27.18c-3.644-10.27-6.138-20.996-7.376-31.82    c-1.152-10.068,0.185-18.704,3.01-28.353c3.085-10.539,3.296-19.999,2.456-30.88C303.753,507.807,298.751,507.783,299,511L299,511    z"
         id="path3497" /></g></g><path
     style="fill:#1c2422"
     d="m 207.53386,624.09569 c 31.03818,-10.61765 64.74201,-9.50648 102.72405,10.42884 1.29626,36.22892 0.38576,71.96745 -22.94344,102.72405 l -3.0486,57.14876 -71.03615,-3.65435 -1.52432,-57.1445 c -13.32594,-39.64184 -17.21554,-76.80042 -4.17154,-109.5028 z"
     id="rect3643"
     inkscape:connector-curvature="0"
     sodipodi:nodetypes="ccccccc" /><g
     id="g3499"><g
       id="g3501"><path
         d="M201.732,622.268c3.563,3.768,12.325,1.663,16.674,1.115c8.432-1.062,16.764-2.753,25.162-4.035    c12.681-1.937,23.813,1.882,35.917,4.986c6.846,1.755,12.913,3.228,19.2,6.63c2.382,1.289,4.801,2.371,7.373,3.218    c1.238,0.408,2.64,0.724,3.942,0.818c1.775,0.13,4.625-0.651,6.238,0.158c2.873,1.443,5.405-2.869,2.523-4.316    c-2.032-1.021-3.677-1.073-5.929-0.823c-3.616,0.401-7.182-1.115-10.341-2.693c-5.591-2.791-10.604-5.344-16.759-6.724    c-13.094-2.936-25.581-8.033-39.232-6.602c-7.068,0.741-14.055,2.202-21.066,3.34c-4.32,0.701-8.654,1.324-13.018,1.676    c-1.45,0.117-6.032,0.896-7.148-0.283C203.048,616.385,199.519,619.927,201.732,622.268L201.732,622.268z"
         id="path3503" /></g></g><g
     id="g3505"><g
       id="g3507"><path
         d="M201.089,558.665c0.769,3.174,2.342,5.961,3.5,9c0.767,2.012,3.331,2.521,4.569,0.597    c4.92-7.644,7.745-16.745,14.609-22.994c2.389-2.175-1.157-5.7-3.535-3.535c-7.217,6.569-10.224,15.979-15.391,24.006    c1.523,0.199,3.046,0.398,4.569,0.597c-1.149-3.015-2.737-5.853-3.5-9C205.152,554.203,200.33,555.531,201.089,558.665    L201.089,558.665z"
         id="path3509" /></g></g><g
     id="g3511"><g
       id="g3513"><path
         d="M298.232,544.768c1.949,2.071,3.23,4.825,4.456,7.36c0.715,1.479,1.343,2.993,1.901,4.537    c0.182,0.503,0.336,1.015,0.485,1.528c0.562,1.938-0.65-0.381,1.761-1.104c-3.081,0.924-1.767,5.75,1.33,4.822    c6.507-1.952-4.028-18.161-6.397-20.679C299.554,538.88,296.025,542.422,298.232,544.768L298.232,544.768z"
         id="path3515" /></g></g><g
     id="g3517"><g
       id="g3519"><path
         d="M208.089,731.165c0.187,0.462,0.375,0.924,0.562,1.387c1.523-0.643,3.046-1.285,4.569-1.927    c-4.36-8.127-6.507-17.128-8.223-26.128c-1.755-9.205-3.201-18.535-3.636-27.901c-0.464-9.992,0.302-19.992,2.145-29.814    c1.537-8.191,2.14-17.389,7.762-24.014c2.073-2.442-1.446-5.997-3.535-3.535c-5.668,6.679-7.163,15.127-8.58,23.527    c-1.808,10.719-3.081,21.183-2.85,32.089c0.209,9.881,1.877,19.69,3.586,29.404c1.752,9.961,4.205,19.932,9.014,28.896    c1.319,2.458,5.644,0.728,4.569-1.927c-0.187-0.462-0.375-0.924-0.562-1.387C211.717,726.887,206.878,728.174,208.089,731.165    L208.089,731.165z"
         id="path3521" /></g></g><g
     id="g3523"><g
       id="g3525"><path
         d="M308,632.5c0.406,3.811,1.108,7.56,1.786,11.329c0.957,5.314,0.61,10.285,0.256,15.622    c-0.624,9.396-1.244,18.716-2.558,28.048c-2.361,16.774-7.219,32.556-18.255,45.729c-2.056,2.453,1.462,6.01,3.535,3.535    c10.933-13.05,16.354-28.174,19.07-44.813c1.55-9.503,2.415-19.075,2.978-28.682c0.288-4.932,0.927-9.884,0.614-14.823    c-0.34-5.364-1.855-10.604-2.426-15.945C312.661,629.328,307.658,629.296,308,632.5L308,632.5z"
         id="path3527" /></g></g><g
     id="g3529"><g
       id="g3531"><path
         d="M236.732,636.268c8.301,8.163,12.304,19.751,16.357,30.397c1.012,2.657,4.676,2.213,4.911-0.665    c1.21-14.87,13.044-22.018,24.762-28.842c2.784-1.621,0.269-5.942-2.523-4.316C266.735,640.704,254.375,649.117,253,666    c1.637-0.222,3.274-0.443,4.911-0.665c-4.366-11.469-8.703-23.813-17.643-32.603C237.968,630.471,234.431,634.004,236.732,636.268    L236.732,636.268z"
         id="path3533" /></g></g><g
     id="g3535"><g
       id="g3537"><path
         d="M251.089,668.665c1.981,10.217,0.562,20.581-0.763,30.788c-1.335,10.287-1.831,20.58-2.184,30.942    c-0.365,10.738-0.434,21.486-0.192,32.228c0.224,9.957,3.427,21.06-0.609,30.615c-1.239,2.934,3.066,5.484,4.317,2.523    c3.604-8.533,2.527-17.608,1.694-26.599c-1.071-11.564-0.621-23.37-0.324-34.966c0.297-11.623,0.807-23.209,2.297-34.744    c1.385-10.723,2.663-21.397,0.584-32.118C255.297,664.172,250.479,665.515,251.089,668.665L251.089,668.665z"
         id="path3539" /></g></g><g
     id="g3541"><g
       id="g3543"><path
         d="M209.089,732.835c-1.607,8.316,0.289,16.798,0.411,25.165c0.163,11.188,0.965,22.326,1.5,33.5c0.153,3.21,5.154,3.225,5,0    c-0.504-10.531-1.347-21.042-1.491-31.588c-0.115-8.412-2.207-17.425-0.598-25.747    C214.52,731.015,209.701,729.672,209.089,732.835L209.089,732.835z"
         id="path3545" /></g></g><g
     id="g3547"><g
       id="g3549"><path
         d="M174.732,541.232c-3.891,3.076-6.724,7.288-9.558,11.305c-3.155,4.472-6.669,8.624-9.892,13.034    c-6.287,8.602-10.358,19.147-18.05,26.661c-2.31,2.256,1.229,5.789,3.535,3.535c7.271-7.103,11.646-16.84,17.165-25.251    c2.95-4.495,6.606-8.468,9.727-12.848c3.223-4.524,6.202-9.415,10.609-12.901C180.796,542.769,177.232,539.255,174.732,541.232    L174.732,541.232z"
         id="path3551" /></g></g><g
     id="g3553"><g
       id="g3555"><path
         d="M156.268,604.268c16.176-13.781,30.05-29.951,45.5-44.5c2.352-2.214-1.19-5.743-3.535-3.535    c-15.45,14.548-29.325,30.718-45.5,44.5C150.274,602.826,153.829,606.346,156.268,604.268L156.268,604.268z"
         id="path3557" /></g></g><g
     id="g3559"><g
       id="g3561"><path
         d="M136.738,591.342c-7.389,3.42-28.847-2.526-30.808,10.104c-1.728,11.13,15.378,9.125,21.569,9.054    c-0.42-1.553-0.841-3.105-1.262-4.658c-11.172,5.055-22.272,10.396-27.071,22.532c-4.27,10.798-1.496,20.741,10.054,24.508    c11.027,3.596,22.064-0.558,28.735-9.776c8.667-11.977,9.683-27.789,18.812-39.338c1.977-2.5-1.537-6.064-3.535-3.535    c-7.206,9.115-9.413,20.322-14.061,30.726c-4.104,9.184-10.502,17.936-21.42,18.207c-4.69,0.117-10.063-1.336-13.447-4.692    c-4.116-4.082-1.962-11.062,0.054-15.559c4.557-10.163,14.899-14.455,24.403-18.756c2.338-1.058,1.088-4.686-1.262-4.658    c-3.107,0.036-6.204,0.199-9.313,0.125c-1.916-0.046-4.017-0.148-5.799-0.925c-3.283-1.432-0.575-4.134,1.145-5.097    c7.79-4.36,17.587-0.176,25.728-3.945C142.186,594.306,139.644,589.996,136.738,591.342L136.738,591.342z"
         id="path3563" /></g></g><g
     id="g3565"><g
       id="g3567"><path
         d="M317.342,564.262c9.048,18.348,15.699,38.884,18.158,59.238c0.382,3.159,5.387,3.196,5,0    c-2.573-21.302-9.364-42.544-18.842-61.762C320.232,558.847,315.921,561.381,317.342,564.262L317.342,564.262z"
         id="path3569" /></g></g><g
     id="g3571"><g
       id="g3573"><path
         d="M341.342,557.762c5.661,8.822,8.467,18.833,10.789,28.959c2.188,9.539,5.182,19.774,3.458,29.614    c-0.552,3.153,4.267,4.502,4.822,1.33c1.813-10.356-0.83-20.839-3.146-30.904c-2.529-10.992-5.454-21.934-11.607-31.522    C343.924,552.534,339.595,555.039,341.342,557.762L341.342,557.762z"
         id="path3575" /></g></g><g
     id="g3577"><g
       id="g3579"><path
         d="M335.589,625.835c-2.124,6.533-6.689,11.895-8.552,18.566c-1.253,4.493-1.296,11.205,2.104,14.799    c3.176,3.357,8.338-0.279,10.474-2.928c3.609-4.474,5.043-10.753,6.797-16.107c1.006-3.073-3.823-4.38-4.822-1.33    c-1.109,3.389-2.137,6.808-3.527,10.095c-0.688,1.626-1.53,3.247-2.643,4.626c-3,3.719-3.908-0.525-4.005-2.96    c-0.351-8.793,6.403-15.458,8.997-23.431C341.411,624.09,336.582,622.783,335.589,625.835L335.589,625.835z"
         id="path3581" /></g></g><g
     id="g3583"><g
       id="g3585"><path
         d="M342.089,641.665c3.541,9.388,0.122,19.776,3.383,29.214c3.21,9.291,14.976,11.601,23.236,8.077    c8.867-3.782,8.148-16.088,6.519-23.732c-2.879-13.505-15.435-24.542-14.227-38.724c0.273-3.215-4.729-3.188-5,0    c-1.002,11.755,6.508,20.51,11.236,30.561c3.333,7.083,6.493,17.992,1.948,25.152c-2.665,4.198-9.137,3.664-13.195,2.539    c-4.554-1.262-6.237-5.523-6.771-9.799c-1.027-8.216,0.688-16.679-2.307-24.618C345.784,637.349,340.949,638.642,342.089,641.665    L342.089,641.665z"
         id="path3587" /></g></g><g
     id="g3589"><g
       id="g3591"><path
         d="M127.254,516.995c1.103,4.413,4.313,7.483,4.406,12.276c0.095,4.839-2.678,9.513-5.154,13.464    c-4.896,7.811-12.015,14.449-15.667,23c-1.004,2.351,1.033,4.494,3.42,3.421c9.888-4.449,18.19-11.488,25.839-19.059    c2.294-2.271-1.242-5.805-3.535-3.535c-7.373,7.297-15.298,13.989-24.828,18.275c1.14,1.141,2.28,2.281,3.42,3.421    c4.119-9.645,12.384-17.055,17.543-26.139c2.414-4.25,4.037-8.972,3.94-13.895c-0.096-4.924-3.448-8.093-4.564-12.561    C131.294,512.539,126.473,513.865,127.254,516.995L127.254,516.995z"
         id="path3593" /></g></g><g
     id="g3595"><g
       id="g3597"><path
         d="M138.587,546.999c-2.428,10.462,1.171,21.401-0.089,31.998c-0.291,2.446,2.802,2.922,4.268,1.768    c3.469-2.731,7.069-5.291,10.828-7.608c2.738-1.688,0.229-6.016-2.523-4.318c-4.125,2.544-8.034,5.396-11.839,8.392    c1.422,0.589,2.845,1.179,4.268,1.768c1.202-10.104-2.395-20.737-0.089-30.668C144.137,545.191,139.316,543.859,138.587,546.999    L138.587,546.999z"
         id="path3599" /></g></g><g
     id="g3601"><g
       id="g3603"><path
         d="M176.173,583.592c3.916,8.545,2.985,19.015,1.748,28.073c-0.268,1.96,1.613,4.172,3.672,2.823    c11.4-7.462,19.42-21.865,24.482-34.159c-1.523,0.198-3.046,0.397-4.569,0.597c2.993,6.343,5.023,14.393,3.748,21.406    c-0.573,3.152,4.245,4.499,4.821,1.33c1.537-8.452-0.636-17.599-4.252-25.26c-1.037-2.197-3.844-1.164-4.569,0.597    c-4.54,11.025-11.985,24.495-22.185,31.173c1.224,0.94,2.448,1.882,3.672,2.823c1.442-10.56,2.305-21.983-2.252-31.927    C179.148,578.14,174.84,580.683,176.173,583.592L176.173,583.592z"
         id="path3605" /></g></g><g
     id="g3607"><g
       id="g3609"><path
         d="M297.736,582.488c4.814,2.974,7.31,9.876,9.697,14.728c2.777,5.645,5.435,11.585,9.797,16.216    c1.251,1.328,3.776,0.723,4.179-1.103c1.979-8.996,2.59-18.518,7.081-26.737c1.547-2.83-2.771-5.354-4.316-2.523    c-4.732,8.659-5.5,18.456-7.587,27.931c1.394-0.367,2.786-0.735,4.179-1.103c-8.434-8.954-9.674-25.036-20.506-31.725    C297.508,576.473,294.999,580.799,297.736,582.488L297.736,582.488z"
         id="path3611" /></g></g><g
     id="g3613"><g
       id="g3615"><path
         d="M353.506,580.259c6.299,11.382,11.03,23.519,14.415,36.07c0.612,2.269,4.364,2.511,4.822,0    c2.406-13.219,2.677-26.599,9.081-38.737c-0.72,0.413-1.439,0.825-2.159,1.238c0.223,0,0.444,0,0.667,0    c-0.804-0.611-1.607-1.224-2.411-1.835c3.354,16.938,16.888,30.788,29.977,41.103c2.504,1.974,5.671-1.044,3.535-3.535    c-14.288-16.669-18.494-39.533-18.601-60.898c-0.016-3.224-5.016-3.225-5,0c0.114,22.791,4.868,46.706,20.065,64.434    c1.179-1.179,2.356-2.356,3.535-3.535c-12.461-9.82-25.494-22.76-28.689-38.897c-0.214-1.079-1.361-1.835-2.411-1.835    c-0.223,0-0.444,0-0.667,0c-0.851,0-1.753,0.469-2.159,1.238c-6.648,12.603-7.086,26.203-9.585,39.931c1.607,0,3.215,0,4.822,0    c-3.493-12.95-8.421-25.521-14.919-37.264C356.263,574.914,351.944,577.436,353.506,580.259L353.506,580.259z"
         id="path3617" /></g></g><g
     id="g3619"><g
       id="g3621"><path
         d="M287.252,735.664c-2.959,9.037-1.684,19.572-2.813,28.969c-1.341,11.159-3.135,22.424-2.61,33.696    c0.149,3.21,5.15,3.225,5,0c-0.499-10.721,1.103-21.45,2.411-32.063c0.613-4.977,1.131-9.905,1.279-14.919    c0.142-4.795,0.046-9.748,1.554-14.353C293.08,733.921,288.251,732.614,287.252,735.664L287.252,735.664z"
         id="path3623" /></g></g></svg>